<svg width="512" height="512" viewBox="0 0 512 512" fill="none" xmlns="http://www.w3.org/2000/svg">
<path d="M52.5888 205.792H111.683V220.156H68.4648V242.08H109.415V256.444H68.4648V280.636H113.951V295H52.5888V205.792ZM123.284 205.792H141.554L165.872 273.202L190.946 205.792H208.082L172.046 295H158.312L123.284 205.792ZM221.657 205.792H280.751V220.156H237.533V242.08H278.483V256.444H237.533V280.636H283.019V295H221.657V205.792ZM302.684 205.792H323.726L366.944 272.068H367.196V205.792H383.072V295H362.912L318.812 226.582H318.56V295H302.684V205.792ZM425.238 220.156H397.896V205.792H468.456V220.156H441.114V295H425.238V220.156Z" fill="white"/>
<path d="M99.9234 318.048C97.8754 315.296 95.3474 313.248 92.3394 311.904C89.3314 310.496 86.1954 309.792 82.9314 309.792C79.1554 309.792 75.6674 310.56 72.4674 312.096C69.3314 313.632 66.6114 315.712 64.3074 318.336C62.0034 320.896 60.2114 323.904 58.9314 327.36C57.6514 330.752 57.0114 334.304 57.0114 338.016C57.0114 341.984 57.6514 345.696 58.9314 349.152C60.2114 352.544 61.9714 355.52 64.2114 358.08C66.5154 360.576 69.2354 362.56 72.3714 364.032C75.5714 365.504 79.0914 366.24 82.9314 366.24C87.0914 366.24 90.8034 365.44 94.0674 363.84C97.3314 362.176 100.179 359.808 102.611 356.736L108.659 361.824C105.587 365.92 101.875 368.928 97.5234 370.848C93.2354 372.768 88.3714 373.728 82.9314 373.728C78.0674 373.728 73.5234 372.832 69.2994 371.04C65.0754 369.248 61.3954 366.784 58.2594 363.648C55.1874 360.448 52.7554 356.672 50.9634 352.32C49.2354 347.968 48.3714 343.2 48.3714 338.016C48.3714 333.024 49.2034 328.352 50.8674 324C52.5954 319.648 54.9954 315.872 58.0674 312.672C61.1394 309.472 64.7874 306.944 69.0114 305.088C73.2354 303.232 77.8754 302.304 82.9314 302.304C87.5394 302.304 91.9554 303.136 96.1794 304.8C100.467 306.464 104.051 309.184 106.931 312.96L99.9234 318.048ZM133.981 304.032H141.565L170.461 372H161.053L154.141 355.296H120.157L113.149 372H104.029L133.981 304.032ZM137.629 314.4H137.437L123.325 347.808H151.069L137.629 314.4ZM171.495 304.032H191.655C194.791 304.032 197.767 304.352 200.583 304.992C203.463 305.568 205.991 306.592 208.167 308.064C210.407 309.472 212.167 311.392 213.447 313.824C214.791 316.192 215.463 319.136 215.463 322.656C215.463 326.368 214.759 329.44 213.351 331.872C211.943 334.304 210.119 336.224 207.879 337.632C205.703 339.04 203.303 340.032 200.679 340.608C198.055 341.184 195.559 341.472 193.191 341.472H179.559V372H171.495V304.032ZM179.559 333.984H193.191C197.223 333.984 200.487 333.088 202.983 331.296C205.543 329.44 206.823 326.592 206.823 322.752C206.823 318.912 205.543 316.096 202.983 314.304C200.487 312.448 197.223 311.52 193.191 311.52H179.559V333.984ZM266.001 311.52H243.537V372H235.473V311.52H213.009V304.032H266.001V311.52ZM267.526 304.032H275.59V372H267.526V304.032ZM316.048 373.728C310.864 373.728 306.096 372.832 301.744 371.04C297.456 369.248 293.712 366.784 290.512 363.648C287.376 360.448 284.912 356.672 283.12 352.32C281.392 347.904 280.528 343.136 280.528 338.016C280.528 332.896 281.392 328.16 283.12 323.808C284.912 319.392 287.376 315.616 290.512 312.48C293.712 309.28 297.456 306.784 301.744 304.992C306.096 303.2 310.864 302.304 316.048 302.304C321.232 302.304 325.968 303.2 330.256 304.992C334.608 306.784 338.352 309.28 341.488 312.48C344.688 315.616 347.152 319.392 348.88 323.808C350.672 328.16 351.568 332.896 351.568 338.016C351.568 343.136 350.672 347.904 348.88 352.32C347.152 356.672 344.688 360.448 341.488 363.648C338.352 366.784 334.608 369.248 330.256 371.04C325.968 372.832 321.232 373.728 316.048 373.728ZM316.048 366.24C320.016 366.24 323.632 365.504 326.896 364.032C330.224 362.56 333.072 360.544 335.44 357.984C337.808 355.424 339.632 352.448 340.912 349.056C342.256 345.6 342.928 341.92 342.928 338.016C342.928 334.112 342.256 330.464 340.912 327.072C339.632 323.616 337.808 320.608 335.44 318.048C333.072 315.488 330.224 313.472 326.896 312C323.632 310.528 320.016 309.792 316.048 309.792C312.08 309.792 308.432 310.528 305.104 312C301.84 313.472 299.024 315.488 296.656 318.048C294.288 320.608 292.432 323.616 291.088 327.072C289.808 330.464 289.168 334.112 289.168 338.016C289.168 341.92 289.808 345.6 291.088 349.056C292.432 352.448 294.288 355.424 296.656 357.984C299.024 360.544 301.84 362.56 305.104 364.032C308.432 365.504 312.08 366.24 316.048 366.24ZM356.526 304.032H366.702L406.062 360.48H406.254V304.032H414.318V372H404.142L364.782 315.552H364.59V372H356.526V304.032ZM455.501 316.032C454.157 313.856 452.365 312.288 450.125 311.328C447.885 310.304 445.549 309.792 443.117 309.792C441.325 309.792 439.565 310.016 437.837 310.464C436.109 310.912 434.541 311.584 433.133 312.48C431.789 313.376 430.701 314.56 429.869 316.032C429.037 317.504 428.621 319.232 428.621 321.216C428.621 322.752 428.845 324.128 429.293 325.344C429.805 326.496 430.605 327.552 431.693 328.512C432.781 329.472 434.253 330.368 436.109 331.2C437.965 332.032 440.237 332.864 442.925 333.696C445.549 334.528 448.077 335.424 450.509 336.384C453.005 337.344 455.181 338.56 457.037 340.032C458.957 341.504 460.461 343.36 461.549 345.6C462.701 347.776 463.277 350.528 463.277 353.856C463.277 357.248 462.605 360.192 461.261 362.688C459.917 365.184 458.125 367.264 455.885 368.928C453.709 370.528 451.181 371.712 448.301 372.48C445.421 373.312 442.445 373.728 439.373 373.728C437.389 373.728 435.405 373.536 433.421 373.152C431.437 372.832 429.517 372.32 427.661 371.616C425.869 370.848 424.173 369.888 422.573 368.736C420.973 367.52 419.597 366.048 418.445 364.32L425.357 358.656C426.829 361.152 428.877 363.04 431.501 364.32C434.125 365.6 436.909 366.24 439.853 366.24C441.581 366.24 443.309 365.984 445.037 365.472C446.829 364.96 448.429 364.224 449.837 363.264C451.245 362.24 452.397 360.992 453.293 359.52C454.189 358.048 454.637 356.352 454.637 354.432C454.637 352.32 454.285 350.624 453.581 349.344C452.877 348 451.789 346.848 450.317 345.888C448.845 344.928 446.989 344.064 444.749 343.296C442.509 342.528 439.885 341.632 436.877 340.608C434.445 339.84 432.205 338.976 430.157 338.016C428.109 336.992 426.317 335.776 424.781 334.368C423.309 332.896 422.125 331.168 421.229 329.184C420.397 327.136 419.981 324.704 419.981 321.888C419.981 318.624 420.621 315.776 421.901 313.344C423.181 310.912 424.909 308.896 427.085 307.296C429.261 305.632 431.725 304.384 434.477 303.552C437.229 302.72 440.109 302.304 443.117 302.304C446.957 302.304 450.445 302.912 453.581 304.128C456.781 305.28 459.629 307.328 462.125 310.272L455.501 316.032Z" fill="white"/>
<path d="M52.7086 97.048H75.1726V178.264H116.789V199H52.7086V97.048ZM166.9 97.048H189.364V199H166.9V97.048ZM237.718 97.048H263.35L288.55 163.864H288.838L314.47 97.048H338.518L296.47 199H278.47L237.718 97.048ZM388.052 97.048H457.316V117.784H410.516V136.792H454.724V157.528H410.516V178.264H459.908V199H388.052V97.048Z" fill="white"/>
<g opacity="0.15">
<path d="M288.264 474.03C288.264 474.295 288.175 474.559 287.997 474.818C287.819 475.083 287.552 475.347 287.191 475.606C286.835 475.865 286.397 476.123 285.863 476.376C285.336 476.629 284.719 476.876 284.026 477.123C283.326 477.37 282.544 477.605 281.684 477.84C280.825 478.076 279.889 478.299 278.875 478.522C277.861 478.74 276.777 478.952 275.615 479.158C274.459 479.363 273.232 479.557 271.946 479.746C270.654 479.934 269.302 480.11 267.892 480.281C266.481 480.445 265.017 480.604 263.5 480.751C261.982 480.898 260.418 481.033 258.811 481.163C257.199 481.286 255.551 481.398 253.868 481.498C252.185 481.604 250.466 481.692 248.717 481.768C246.975 481.845 245.202 481.909 243.418 481.962C241.628 482.009 239.821 482.051 238.007 482.08C236.193 482.104 234.368 482.115 232.548 482.115C230.722 482.115 228.903 482.104 227.083 482.08C225.269 482.051 223.467 482.009 221.677 481.962C219.887 481.909 218.115 481.845 216.373 481.768C214.624 481.692 212.911 481.604 211.222 481.498C209.538 481.398 207.891 481.286 206.279 481.163C204.672 481.033 203.107 480.898 201.59 480.751C200.073 480.604 198.609 480.445 197.198 480.281C195.787 480.11 194.436 479.934 193.144 479.746C191.858 479.557 190.631 479.363 189.475 479.158C188.319 478.952 187.228 478.74 186.215 478.522C185.201 478.299 184.265 478.076 183.405 477.84C182.546 477.605 181.764 477.37 181.07 477.123C180.371 476.876 179.754 476.629 179.227 476.376C178.693 476.123 178.255 475.865 177.899 475.606C177.543 475.347 177.271 475.083 177.093 474.818C176.915 474.559 176.826 474.295 176.826 474.03C176.826 473.765 176.915 473.501 177.093 473.236C177.271 472.972 177.543 472.707 177.899 472.448C178.255 472.189 178.693 471.931 179.227 471.678C179.754 471.425 180.371 471.178 181.07 470.931C181.764 470.69 182.546 470.449 183.405 470.214C184.265 469.979 185.201 469.755 186.215 469.532C187.228 469.314 188.319 469.102 189.475 468.897C190.631 468.691 191.858 468.497 193.144 468.309C194.436 468.12 195.787 467.944 197.198 467.773C198.609 467.609 200.073 467.45 201.59 467.303C203.107 467.156 204.672 467.021 206.279 466.891C207.891 466.768 209.538 466.656 211.222 466.556C212.911 466.45 214.624 466.362 216.373 466.286C218.115 466.209 219.887 466.145 221.677 466.092C223.467 466.045 225.269 466.004 227.083 465.98C228.903 465.951 230.722 465.939 232.548 465.939C234.368 465.939 236.193 465.951 238.007 465.98C239.821 466.004 241.628 466.045 243.418 466.092C245.202 466.145 246.975 466.209 248.717 466.286C250.466 466.362 252.185 466.45 253.868 466.556C255.551 466.656 257.199 466.768 258.811 466.891C260.418 467.021 261.982 467.156 263.5 467.303C265.017 467.45 266.481 467.609 267.892 467.773C269.302 467.944 270.654 468.12 271.946 468.309C273.232 468.497 274.459 468.691 275.615 468.897C276.777 469.102 277.861 469.314 278.875 469.532C279.889 469.755 280.825 469.979 281.684 470.214C282.544 470.449 283.326 470.69 284.026 470.931C284.719 471.178 285.336 471.425 285.863 471.678C286.397 471.931 286.835 472.189 287.191 472.448C287.552 472.707 287.819 472.972 287.997 473.236C288.175 473.501 288.264 473.765 288.264 474.03Z" fill="#DDDDDD"/>
<path d="M250.492 316.802C249.187 316.802 247.867 316.648 246.562 316.355C237.167 314.165 231.241 304.788 233.375 295.303L234.25 291.417C237.597 276.488 240.452 263.656 250.63 248.048C251.996 245.951 253.393 243.915 254.851 241.817C262.988 229.849 267.931 222.076 266.242 213.81C265.367 209.538 262.558 205.744 259.073 204.186C256.064 202.813 252.764 203.261 248.987 205.497C240.651 210.355 229.936 207.579 225.039 199.174C220.157 190.815 222.967 180.065 231.349 175.145C244.965 167.172 259.887 166.107 273.319 172.091C287.181 178.261 297.313 191.2 300.552 206.669C305.357 229.957 293.383 247.462 283.789 261.558L279.951 267.249C273.273 277.505 271.431 285.633 268.422 299.097L267.547 303.092C265.659 311.25 258.49 316.802 250.492 316.802Z" fill="white" fill-opacity="0.9"/>
<path d="M232.62 436.012C232.145 436.012 231.655 436.012 231.119 436.012C197.377 435.426 170.235 414.734 160.326 382.122C157.523 372.826 162.746 362.99 171.936 360.164C181.263 357.384 190.944 362.588 193.747 371.853C199.153 389.657 213.321 400.528 231.747 400.868C232.038 400.868 232.283 400.868 232.528 400.868C248.871 400.868 268.308 391.618 275.461 370.68C278.999 360.411 280.347 349.556 281.848 338.113C284.069 320.68 286.581 300.915 297.655 281.783C300.703 276.518 303.796 271.607 306.799 266.789C317.398 249.896 325.761 236.509 326.281 217.33C327.308 182.85 315.56 158.715 292.294 147.411C267.251 135.244 231.456 140.401 209.078 159.394C196.932 169.709 184.174 187.914 192.245 216.111C194.911 225.453 189.58 235.196 180.299 237.868C171.017 240.539 161.398 235.196 158.687 225.839C148.486 190.262 158.641 156.229 186.532 132.51C219.325 104.669 270.146 97.6127 307.427 115.726C328.318 125.84 363.087 152.723 361.157 218.35C360.33 247.117 348.092 266.635 336.298 285.474C333.495 289.952 330.585 294.538 327.782 299.402C320.293 312.403 318.5 326.378 316.417 342.592C314.824 355.3 313.14 368.441 308.437 382.122C297.425 414.549 267.052 436.012 232.62 436.012Z" fill="#F5F5F5"/>
<path d="M449.715 319.963C447.51 319.963 445.272 319.571 443.066 318.773C433.547 315.22 428.78 304.905 432.461 295.733L433.385 293.464C437.066 284.276 447.818 279.69 457.288 283.243C466.823 286.796 471.575 297.111 467.894 306.298L466.969 308.568C464.148 315.611 457.142 319.963 449.715 319.963Z" fill="#F5F5F5" fill-opacity="0.62"/>
<path d="M459.086 279.505C457.873 279.505 456.659 279.35 455.4 279.103C445.956 277.062 439.936 267.708 441.933 258.247C449.35 223.29 448.229 187.468 438.631 154.615C422.967 100.998 385.882 59.6567 334.253 38.2594C293.283 21.2529 245.969 19.645 201.221 33.7759C191.961 36.6979 182.164 31.4877 179.307 22.2269C176.39 12.9661 181.534 3.07135 190.794 0.149323C243.344 -16.4243 299.103 -14.4763 347.675 5.69964C373.193 16.2755 395.733 30.9311 414.714 49.0253C441.574 74.6286 461.309 107.117 472.277 144.674C483.533 183.14 484.885 224.898 476.208 265.559C474.411 273.846 467.133 279.505 459.086 279.505Z" fill="white" fill-opacity="0.3"/>
<path d="M148.473 57.1279C142.509 57.1279 136.699 54.0013 133.464 48.408C128.528 39.9395 131.241 28.9415 139.52 23.8824L142.509 21.9499C144.211 20.8658 144.548 20.5672 149.684 18.0377C158.391 13.7799 168.847 17.4878 173.001 26.4119C177.217 35.3203 173.538 45.9727 164.83 50.2934C163.174 51.079 162.408 51.4718 161.871 51.7703C160.752 52.5087 159.648 53.2629 157.364 54.6455C154.62 56.3266 151.508 57.1279 148.473 57.1279Z" fill="#E0E0E0" fill-opacity="0.898"/>
<path d="M390.692 297.841C388.512 297.841 386.303 297.369 384.166 296.44C375.892 292.724 372.077 282.859 375.705 274.351C377.426 270.267 379.004 266.079 380.409 261.847C383.306 253.074 392.585 248.326 401.146 251.348C409.708 254.327 414.282 263.853 411.385 272.641C409.708 277.757 407.8 282.815 405.678 287.799C403.01 294.066 396.987 297.841 390.692 297.841Z" fill="white" fill-opacity="0.8"/>
<path d="M407.066 237.796C406.728 237.796 406.391 237.796 406.1 237.75C396.469 237.211 389.062 228.954 389.599 219.25C392.881 160.669 364.757 113.272 314.412 92.4456C285.398 80.4461 250.067 80.1072 217.388 91.4752C208.187 94.633 198.312 89.7654 195.168 80.6463C192.009 71.5118 196.809 61.4994 205.964 58.3416C246.632 44.2163 291.026 44.8479 327.769 60.0514C391.531 86.4227 428.657 148.146 424.593 221.191C423.965 230.556 416.267 237.796 407.066 237.796Z" fill="white" fill-opacity="0.5"/>
<path d="M260.566 351.557C260.566 352.805 260.454 354.036 260.214 355.252C259.959 356.483 259.607 357.667 259.128 358.819C258.649 359.97 258.074 361.058 257.371 362.097C256.684 363.121 255.901 364.081 255.023 364.96C254.144 365.84 253.186 366.64 252.147 367.328C251.109 368.015 250.023 368.607 248.872 369.071C247.722 369.551 246.524 369.919 245.31 370.159C244.096 370.399 242.85 370.527 241.604 370.527C240.358 370.527 239.128 370.399 237.914 370.159C236.684 369.919 235.502 369.551 234.352 369.071C233.202 368.607 232.115 368.015 231.077 367.328C230.039 366.64 229.08 365.84 228.202 364.96C227.323 364.081 226.54 363.121 225.837 362.097C225.151 361.058 224.575 359.97 224.096 358.819C223.617 357.667 223.25 356.483 223.01 355.252C222.77 354.036 222.643 352.805 222.643 351.557C222.643 350.309 222.77 349.078 223.01 347.862C223.25 346.647 223.617 345.447 224.096 344.311C224.575 343.16 225.151 342.056 225.837 341.033C226.54 339.993 227.323 339.033 228.202 338.154C229.08 337.274 230.039 336.49 231.077 335.802C232.115 335.099 233.202 334.523 234.352 334.043C235.502 333.563 236.684 333.211 237.914 332.971C239.128 332.715 240.358 332.603 241.604 332.603C242.85 332.603 244.096 332.715 245.31 332.971C246.524 333.211 247.722 333.563 248.872 334.043C250.023 334.523 251.109 335.099 252.147 335.802C253.186 336.49 254.144 337.274 255.023 338.154C255.901 339.033 256.684 339.993 257.371 341.033C258.074 342.056 258.649 343.16 259.128 344.311C259.607 345.447 259.959 346.647 260.214 347.862C260.454 349.078 260.566 350.309 260.566 351.557Z" fill="white"/>
</g>
</svg>
