<svg width="128" height="23" viewBox="0 0 128 23" fill="none" xmlns="http://www.w3.org/2000/svg">
<path fill-rule="evenodd" clip-rule="evenodd" d="M79.9668 10.8748L88.9048 22.2751H82.4996L74.3125 11.6296V22.2751H68.9376V0.529541H74.3125V10.2433L82.2172 0.529541H88.5918L79.9668 10.8748ZM96.6847 17.8017H107.09V22.2751H91.3102V0.529541H106.59V5.00296H96.6847V8.97901H105.621V13.3287H96.6847V17.8017ZM109.276 0.529541V4.99713H115.939V22.2755H121.298V4.99713H127.931V0.529541H109.276Z" fill="white"/>
<mask id="mask0_414_20" style="mask-type:luminance" maskUnits="userSpaceOnUse" x="0" y="0" width="128" height="23">
<path d="M0.0251465 0.16333H127.93V22.6412H0.0251465V0.16333Z" fill="white"/>
</mask>
<g mask="url(#mask0_414_20)">
<path fill-rule="evenodd" clip-rule="evenodd" d="M109.276 0.529541V4.99713H115.939V22.2755H121.298V4.99713H127.93V0.529541H109.276ZM12.4986 7.64352C12.4986 6.02853 11.2177 4.91048 9.34232 4.91048H5.40545V10.4082H9.34232C11.2483 10.4082 12.4986 9.29018 12.4986 7.64352ZM12.8116 13.919L19.3735 22.2751H13.2172L5.37444 11.7962V22.2751H0V0.529541H9.8426C14.5303 0.529541 17.811 3.41962 17.811 7.58145C17.811 10.5324 15.9042 13.2046 12.8116 13.919Z" fill="white"/>
</g>
<mask id="mask1_414_20" style="mask-type:luminance" maskUnits="userSpaceOnUse" x="0" y="0" width="128" height="23">
<path d="M0.0251465 0.16333H127.93V22.6412H0.0251465V0.16333Z" fill="white"/>
</mask>
<g mask="url(#mask1_414_20)">
<path fill-rule="evenodd" clip-rule="evenodd" d="M32.3665 4.84586C36.3092 4.84586 39.3901 7.84341 39.3901 11.9653C39.3901 15.234 37.7707 17.1747 35.581 18.6477L38.5831 22.6412C42.3251 20.1081 44.6694 16.5895 44.6694 11.9653C44.6694 5.14162 39.2166 0.16333 32.3665 0.16333C25.5168 0.16333 20.064 5.14162 20.064 11.9653C20.064 16.5895 22.4082 20.1081 26.1499 22.6412L29.152 18.6477C26.9627 17.1747 25.3433 15.234 25.3433 11.9653C25.3433 7.84341 28.4237 4.84586 32.3665 4.84586Z" fill="#C8202F"/>
</g>
<mask id="mask2_414_20" style="mask-type:luminance" maskUnits="userSpaceOnUse" x="0" y="0" width="128" height="23">
<path d="M0.0251465 0.16333H127.93V22.6412H0.0251465V0.16333Z" fill="white"/>
</mask>
<g mask="url(#mask2_414_20)">
<path fill-rule="evenodd" clip-rule="evenodd" d="M63.5422 16.2558L66.3632 20.0656C64.3215 21.8756 61.779 22.6412 58.6697 22.6412C52.5151 22.6412 47.2085 18.1761 47.2085 11.3712C47.2085 4.68965 52.4832 0.16333 58.6697 0.16333C61.6533 0.16333 64.3215 0.927714 66.3314 2.51897L63.4169 6.48502C62.2227 5.54818 60.8367 4.84586 58.7015 4.84586C55.3098 4.84586 52.5779 7.53016 52.5779 11.4641C52.5779 15.3352 55.3098 17.9574 58.7958 17.9574C60.8367 17.9574 62.3174 17.1926 63.5422 16.2558Z" fill="white"/>
</g>
</svg>
